<?xml version="1.0" encoding="UTF-8"?>
<!DOCTYPE svg PUBLIC "-//W3C//DTD SVG 1.1//EN" "http://www.w3.org/Graphics/SVG/1.1/DTD/svg11.dtd">
<svg xmlns="http://www.w3.org/2000/svg" style="background: transparent; background-color: transparent; color-scheme: only light;" xmlns:xlink="http://www.w3.org/1999/xlink" version="1.1" width="271px" height="326px" viewBox="0 0 271 326"><style type="text/css"><![CDATA[svg{color-scheme:only light!important}*{color-scheme:only light!important}]]></style><defs/><g><g data-cell-id="0"><g data-cell-id="1"><g data-cell-id="CoonA1BIoy3hjN62-uLn-4"><g transform="translate(0.5,0.5)"><path d="M 54 30.33 L 207.36 30.33 C 207.36 30.33 232.2 30.33 232.2 54.17 L 232.2 270.83 C 232.2 270.83 232.2 294.67 207.36 294.67 L 54 294.67 C 54 294.67 16.2 294.67 16.2 254.58 L 16.2 65 C 16.2 65 16.2 30.33 54 30.33" fill="#ffffff" stroke="#808080" stroke-width="0.86" stroke-miterlimit="10" pointer-events="all" style="fill: rgb(255, 255, 255); stroke: rgb(128, 128, 128);"/><path d="M 54 35.75 L 208.44 35.75 C 208.44 35.75 226.8 35.75 226.8 54.17 L 226.8 270.83 C 226.8 270.83 226.8 289.25 208.44 289.25 L 54 289.25 C 54 289.25 21.6 289.25 21.6 254.58 L 21.6 65 C 21.6 65 21.6 35.75 54 35.75" fill="#d00000" stroke="#ffffff" stroke-width="0.22" stroke-miterlimit="10" pointer-events="all" style="fill: rgb(208, 0, 0); stroke: rgb(255, 255, 255);"/><path d="M 54 54.17 L 54 151.67 M 54 270.83 L 54 184.17 M 32.4 151.67 L 75.6 151.67 M 43.2 162.5 L 64.8 162.5 M 32.4 173.33 L 75.6 173.33 M 43.2 184.17 L 64.8 184.17" fill="#d00000" stroke="#ffffff" stroke-width="4.86" stroke-miterlimit="10" pointer-events="all" style="fill: rgb(208, 0, 0); stroke: rgb(255, 255, 255);"/><ellipse cx="54" cy="167.92" rx="5.4" ry="5.416666666666666" fill="#800000" stroke="#d00000" stroke-width="1.08" pointer-events="all" style="fill: rgb(128, 0, 0); stroke: rgb(208, 0, 0);"/><rect x="172.8" y="75.83" width="43.2" height="173.33" rx="4.32" ry="4.32" fill="#ffffff" stroke="#404040" stroke-width="1.08" pointer-events="all" style="fill: rgb(255, 255, 255); stroke: rgb(64, 64, 64);"/><rect x="183.6" y="249.17" width="21.6" height="5.42" rx="0.43" ry="0.43" fill="#ffffff" stroke="#404040" stroke-width="1.08" pointer-events="all" style="fill: rgb(255, 255, 255); stroke: rgb(64, 64, 64);"/><rect x="118.8" y="81.25" width="43.2" height="173.33" rx="4.32" ry="4.32" fill="#ffffff" stroke="#404040" stroke-width="1.08" pointer-events="all" style="fill: rgb(255, 255, 255); stroke: rgb(64, 64, 64);"/><rect x="129.6" y="75.83" width="21.6" height="5.42" rx="0.32" ry="0.32" fill="#ffffff" stroke="#404040" stroke-width="1.08" pointer-events="all" style="fill: rgb(255, 255, 255); stroke: rgb(64, 64, 64);"/><rect x="172.8" y="79.08" width="43.2" height="166.83" fill="#ffa000" stroke="#404040" stroke-width="1.08" pointer-events="all" style="fill: rgb(255, 160, 0); stroke: rgb(64, 64, 64);"/><rect x="118.8" y="84.5" width="43.2" height="166.83" fill="#ffa000" stroke="#404040" stroke-width="1.08" pointer-events="all" style="fill: rgb(255, 160, 0); stroke: rgb(64, 64, 64);"/><g fill="#FFFFFF" font-family="Arial, Helvetica" font-weight="bold" text-anchor="start" font-size="25.92px" style="fill: rgb(255, 255, 255);"><text x="132.84" y="111.59">+</text></g><g fill="#FFFFFF" font-family="Arial, Helvetica" font-weight="bold" text-anchor="start" font-size="25.92px" style="fill: rgb(255, 255, 255);"><text x="186.84" y="236.17">+</text></g><rect x="102.6" y="59.58" width="124.2" height="211.25" rx="8.69" ry="8.69" fill-opacity="0.3" fill="#0080f0" stroke="#2080f0" stroke-opacity="0.3" stroke-width="0.1" pointer-events="all" style="fill: rgb(0, 128, 240); stroke: rgb(32, 128, 240);"/><g fill="#FFFFFF" font-family="Arial, Helvetica" font-weight="bold" text-anchor="start" font-size="25.92px" style="fill: rgb(255, 255, 255);"><text x="32.4" y="106.17">+</text></g><g fill="#FFFFFF" font-family="Arial, Helvetica" font-weight="bold" text-anchor="start" font-size="25.92px" style="fill: rgb(255, 255, 255);"><text x="62.64" y="106.17">3v</text></g><ellipse cx="54" cy="54.17" rx="11.88" ry="11.916666666666666" fill="#ffffff" stroke="#a0a0a0" stroke-width="1.08" pointer-events="all" style="fill: rgb(255, 255, 255); stroke: rgb(160, 160, 160);"/><ellipse cx="54" cy="270.83" rx="11.88" ry="11.916666666666666" fill="#ffffff" stroke="#a0a0a0" stroke-width="1.08" pointer-events="all" style="fill: rgb(255, 255, 255); stroke: rgb(160, 160, 160);"/><ellipse cx="54" cy="54.17" rx="7.5600000000000005" ry="7.583333333333333" fill="#f6f6f6" stroke="#d0d0d0" stroke-width="1.08" pointer-events="all" style="fill: rgb(246, 246, 246); stroke: rgb(208, 208, 208);"/><ellipse cx="54" cy="270.83" rx="7.5600000000000005" ry="7.583333333333333" fill="#f6f6f6" stroke="#d0d0d0" stroke-width="1.08" pointer-events="all" style="fill: rgb(246, 246, 246); stroke: rgb(208, 208, 208);"/><ellipse cx="54" cy="54.17" rx="3.24" ry="3.25" fill="#ffffff" stroke="#ffffff" stroke-width="0.54" pointer-events="all" style="fill: rgb(255, 255, 255); stroke: rgb(255, 255, 255);"/><ellipse cx="54" cy="270.83" rx="3.24" ry="3.25" fill="#ffffff" stroke="#ffffff" stroke-width="0.54" pointer-events="all" style="fill: rgb(255, 255, 255); stroke: rgb(255, 255, 255);"/></g></g></g></g></g></svg>